<mxfile host="Electron" modified="2023-09-18T02:30:46.746Z" agent="Mozilla/5.0 (Windows NT 10.0; Win64; x64) AppleWebKit/537.36 (KHTML, like Gecko) draw.io/21.5.1 Chrome/112.0.5615.204 Electron/24.6.0 Safari/537.36" etag="oowPqj41dvWe1aIrV1V_" version="21.5.1" type="device">
  <diagram name="Page-1" id="dKn-qYT8dmPoXjLSDurD">
    <mxGraphModel dx="1911" dy="824" grid="1" gridSize="10" guides="1" tooltips="1" connect="1" arrows="1" fold="1" page="1" pageScale="1" pageWidth="827" pageHeight="1169" math="0" shadow="0">
      <root>
        <mxCell id="0" />
        <mxCell id="1" parent="0" />
        <mxCell id="USLhi35vry2M8o9bzlBq-1" value="EC2 instance contents" style="points=[[0,0],[0.25,0],[0.5,0],[0.75,0],[1,0],[1,0.25],[1,0.5],[1,0.75],[1,1],[0.75,1],[0.5,1],[0.25,1],[0,1],[0,0.75],[0,0.5],[0,0.25]];outlineConnect=0;gradientColor=none;html=1;whiteSpace=wrap;fontSize=12;fontStyle=0;container=1;pointerEvents=0;collapsible=0;recursiveResize=0;shape=mxgraph.aws4.group;grIcon=mxgraph.aws4.group_ec2_instance_contents;strokeColor=#D86613;fillColor=none;verticalAlign=top;align=left;spacingLeft=30;fontColor=#D86613;dashed=0;" vertex="1" parent="1">
          <mxGeometry x="-250" y="240" width="340" height="170" as="geometry" />
        </mxCell>
        <mxCell id="USLhi35vry2M8o9bzlBq-2" value="" style="sketch=0;points=[[0,0,0],[0.25,0,0],[0.5,0,0],[0.75,0,0],[1,0,0],[0,1,0],[0.25,1,0],[0.5,1,0],[0.75,1,0],[1,1,0],[0,0.25,0],[0,0.5,0],[0,0.75,0],[1,0.25,0],[1,0.5,0],[1,0.75,0]];outlineConnect=0;fontColor=#232F3E;gradientColor=#F78E04;gradientDirection=north;fillColor=#D05C17;strokeColor=#ffffff;dashed=0;verticalLabelPosition=bottom;verticalAlign=top;align=center;html=1;fontSize=12;fontStyle=0;aspect=fixed;shape=mxgraph.aws4.resourceIcon;resIcon=mxgraph.aws4.ec2;" vertex="1" parent="USLhi35vry2M8o9bzlBq-1">
          <mxGeometry x="33" y="52" width="78" height="78" as="geometry" />
        </mxCell>
        <mxCell id="USLhi35vry2M8o9bzlBq-3" value="CloudWatch &lt;b&gt;&lt;font style=&quot;font-size: 17px;&quot;&gt;Logs Agent&lt;/font&gt;&lt;/b&gt;" style="rounded=0;whiteSpace=wrap;html=1;" vertex="1" parent="USLhi35vry2M8o9bzlBq-1">
          <mxGeometry x="60" y="90" width="80" height="60" as="geometry" />
        </mxCell>
        <mxCell id="USLhi35vry2M8o9bzlBq-4" value="" style="sketch=0;points=[[0,0,0],[0.25,0,0],[0.5,0,0],[0.75,0,0],[1,0,0],[0,1,0],[0.25,1,0],[0.5,1,0],[0.75,1,0],[1,1,0],[0,0.25,0],[0,0.5,0],[0,0.75,0],[1,0.25,0],[1,0.5,0],[1,0.75,0]];outlineConnect=0;fontColor=#232F3E;gradientColor=#F78E04;gradientDirection=north;fillColor=#D05C17;strokeColor=#ffffff;dashed=0;verticalLabelPosition=bottom;verticalAlign=top;align=center;html=1;fontSize=12;fontStyle=0;aspect=fixed;shape=mxgraph.aws4.resourceIcon;resIcon=mxgraph.aws4.ec2;" vertex="1" parent="USLhi35vry2M8o9bzlBq-1">
          <mxGeometry x="238" y="52" width="78" height="78" as="geometry" />
        </mxCell>
        <mxCell id="USLhi35vry2M8o9bzlBq-5" value="CloudWatch &lt;b&gt;&lt;font style=&quot;font-size: 17px;&quot;&gt;Logs Agent&lt;/font&gt;&lt;/b&gt;" style="rounded=0;whiteSpace=wrap;html=1;" vertex="1" parent="USLhi35vry2M8o9bzlBq-1">
          <mxGeometry x="265" y="90" width="80" height="60" as="geometry" />
        </mxCell>
        <mxCell id="USLhi35vry2M8o9bzlBq-6" value="SSH Login Event (HIDS -&amp;nbsp;host-based intrusion detection system)" style="edgeStyle=orthogonalEdgeStyle;rounded=0;orthogonalLoop=1;jettySize=auto;html=1;entryX=0.5;entryY=0;entryDx=0;entryDy=0;fontStyle=1;fontColor=#FF0000;" edge="1" parent="1" source="USLhi35vry2M8o9bzlBq-7" target="USLhi35vry2M8o9bzlBq-1">
          <mxGeometry relative="1" as="geometry" />
        </mxCell>
        <mxCell id="USLhi35vry2M8o9bzlBq-7" value="Terminal" style="sketch=0;outlineConnect=0;fontColor=#232F3E;gradientColor=none;fillColor=#232F3D;strokeColor=none;dashed=0;verticalLabelPosition=top;verticalAlign=bottom;align=center;html=1;fontSize=12;fontStyle=0;aspect=fixed;pointerEvents=1;shape=mxgraph.aws4.client;labelPosition=center;" vertex="1" parent="1">
          <mxGeometry x="-119" y="31" width="78" height="76" as="geometry" />
        </mxCell>
        <mxCell id="USLhi35vry2M8o9bzlBq-8" style="edgeStyle=orthogonalEdgeStyle;rounded=0;orthogonalLoop=1;jettySize=auto;html=1;" edge="1" parent="1" source="USLhi35vry2M8o9bzlBq-9" target="USLhi35vry2M8o9bzlBq-7">
          <mxGeometry relative="1" as="geometry" />
        </mxCell>
        <mxCell id="USLhi35vry2M8o9bzlBq-9" value="Client" style="sketch=0;outlineConnect=0;fontColor=#232F3E;gradientColor=none;fillColor=#232F3D;strokeColor=none;dashed=0;verticalLabelPosition=bottom;verticalAlign=top;align=center;html=1;fontSize=12;fontStyle=0;aspect=fixed;pointerEvents=1;shape=mxgraph.aws4.user;" vertex="1" parent="1">
          <mxGeometry x="-300" y="30" width="78" height="78" as="geometry" />
        </mxCell>
        <mxCell id="USLhi35vry2M8o9bzlBq-14" style="edgeStyle=orthogonalEdgeStyle;rounded=0;orthogonalLoop=1;jettySize=auto;html=1;entryX=0.5;entryY=0;entryDx=0;entryDy=0;entryPerimeter=0;" edge="1" parent="1" source="USLhi35vry2M8o9bzlBq-10" target="USLhi35vry2M8o9bzlBq-13">
          <mxGeometry relative="1" as="geometry" />
        </mxCell>
        <mxCell id="USLhi35vry2M8o9bzlBq-10" value="CloudWatch Logs (&lt;b&gt;Subscriptions&lt;/b&gt;)" style="sketch=0;outlineConnect=0;fontColor=#232F3E;gradientColor=none;fillColor=#B0084D;strokeColor=none;dashed=0;verticalLabelPosition=top;verticalAlign=bottom;align=center;html=1;fontSize=12;fontStyle=0;aspect=fixed;pointerEvents=1;shape=mxgraph.aws4.logs;labelPosition=center;" vertex="1" parent="1">
          <mxGeometry x="-110" y="507" width="78" height="58" as="geometry" />
        </mxCell>
        <mxCell id="USLhi35vry2M8o9bzlBq-11" style="edgeStyle=orthogonalEdgeStyle;rounded=0;orthogonalLoop=1;jettySize=auto;html=1;" edge="1" parent="1" source="USLhi35vry2M8o9bzlBq-5" target="USLhi35vry2M8o9bzlBq-10">
          <mxGeometry relative="1" as="geometry">
            <Array as="points">
              <mxPoint x="30" y="536" />
            </Array>
          </mxGeometry>
        </mxCell>
        <mxCell id="USLhi35vry2M8o9bzlBq-12" style="edgeStyle=orthogonalEdgeStyle;rounded=0;orthogonalLoop=1;jettySize=auto;html=1;" edge="1" parent="1" source="USLhi35vry2M8o9bzlBq-3" target="USLhi35vry2M8o9bzlBq-10">
          <mxGeometry relative="1" as="geometry">
            <Array as="points">
              <mxPoint x="-170" y="536" />
            </Array>
          </mxGeometry>
        </mxCell>
        <mxCell id="USLhi35vry2M8o9bzlBq-13" value="AWS Lambda (Consumer)" style="sketch=0;points=[[0,0,0],[0.25,0,0],[0.5,0,0],[0.75,0,0],[1,0,0],[0,1,0],[0.25,1,0],[0.5,1,0],[0.75,1,0],[1,1,0],[0,0.25,0],[0,0.5,0],[0,0.75,0],[1,0.25,0],[1,0.5,0],[1,0.75,0]];outlineConnect=0;fontColor=#232F3E;gradientColor=#F78E04;gradientDirection=north;fillColor=#D05C17;strokeColor=#ffffff;dashed=0;verticalLabelPosition=bottom;verticalAlign=top;align=center;html=1;fontSize=12;fontStyle=0;aspect=fixed;shape=mxgraph.aws4.resourceIcon;resIcon=mxgraph.aws4.lambda;" vertex="1" parent="1">
          <mxGeometry x="-140" y="670" width="78" height="78" as="geometry" />
        </mxCell>
      </root>
    </mxGraphModel>
  </diagram>
</mxfile>
